# xmcd
# Track frame offsets:
# 150
# 8289
# 17730
# 31500
# 43752
# 52765
# 62706
# 71611
# 85841
# 92644
#
# Disc length: 1343 seconds
# Revision: 0
# Processed by: cddbd v1.4PL0 Copyright (c) Steve Scherf et al.
# Submitted via: VisiTrax 2.9.5.181 - For more info visit www.synapsa.com
#
DISCID=67053d0a
DTITLE=Willie Nelson - Things To Remember
DYEAR=1900
DGENRE=Country
TTITLE0=Things To Remember
TTITLE1=Building Heartaches
TTITLE2=Home Is Where You're Happy
TTITLE3=Shelter Of Your Arms
TTITLE4=The Ghost
TTITLE5=I Didn't Sleep A Wink
TTITLE6=Why Are You Picking On Me
TTITLE7=Rainy Day Blues
TTITLE8=Both Ends Of The Candle
TTITLE9=Half A Man (Live)
EXTD=
EXTT0=
EXTT1=
EXTT2=
EXTT3=
EXTT4=
EXTT5=
EXTT6=
EXTT7=
EXTT8=
EXTT9=
PLAYORDER=
